<svg width="125" height="125" viewBox="0 0 125 125" fill="none" xmlns="http://www.w3.org/2000/svg">
<circle cx="62.5" cy="62.5" r="62.5" fill="white"/>
<path d="M98 51.662C98 61.6897 92.1819 71.9794 80.7102 82.2692C75.501 86.9379 69.8291 91.0663 63.7819 94.5908C63.3891 94.8059 62.9482 94.9187 62.5 94.9187C62.0518 94.9187 61.6109 94.8059 61.2181 94.5908C59.8046 93.8043 27 75.2237 27 51.662C27 47.5353 28.3024 43.5132 30.7227 40.1654C33.143 36.8177 36.5586 34.314 40.4855 33.009C44.4124 31.704 48.6517 31.6639 52.6027 32.8944C56.5538 34.1248 60.0164 36.5634 62.5 39.8648C64.9836 36.5634 68.4462 34.1248 72.3972 32.8944C76.3483 31.6639 80.5876 31.704 84.5145 33.009C88.4414 34.314 91.857 36.8177 94.2773 40.1654C96.6976 43.5132 98 47.5353 98 51.662Z" fill="#B44D00"/>
</svg>
