<svg width="43" height="43" viewBox="0 0 43 43" fill="none" xmlns="http://www.w3.org/2000/svg">
<circle cx="21.5" cy="21.5" r="21.5" fill="#F9F6F3"/>
<path d="M32.8521 17.7718C32.8521 20.871 31.0522 24.1963 27.1904 27.6602L27.1901 27.6605C25.4462 29.2234 23.5477 30.606 21.5238 31.787C21.5165 31.7903 21.5084 31.7921 21.5001 31.7921C21.4902 31.7921 21.4806 31.7896 21.4722 31.785L21.0591 32.5393L21.4773 31.7878C21.2599 31.6669 18.3833 30.0393 15.5727 27.4599C12.7255 24.8469 10.1481 21.4413 10.1481 17.7718C10.1481 16.5333 10.5389 15.326 11.2656 14.3208C11.9924 13.3156 13.0183 12.5634 14.1983 12.1713C15.3784 11.7791 16.6524 11.7671 17.8397 12.1368C19.027 12.5066 20.0671 13.2392 20.8128 14.2306L21.5001 15.1441L22.1873 14.2306C22.9331 13.2392 23.9731 12.5066 25.1604 12.1368C26.3478 11.7671 27.6218 11.7791 28.8019 12.1713C29.9819 12.5634 31.0078 13.3156 31.7345 14.3208C32.4612 15.326 32.8521 16.5333 32.8521 17.7718Z" stroke="#B44D00" stroke-width="1.72"/>
</svg>
