<svg width="125" height="125" viewBox="0 0 125 125" fill="none" xmlns="http://www.w3.org/2000/svg">
<circle cx="62.5" cy="62.5" r="62.5" fill="white"/>
<path d="M95.5 51.662C95.5 60.6714 90.2677 70.3379 79.0416 80.4075C73.9719 84.9513 68.4528 88.9707 62.5691 92.404C62.5477 92.4136 62.5241 92.4187 62.5 92.4187C62.4727 92.4187 62.4461 92.4121 62.4226 92.4C61.7109 92.0031 53.3952 87.2826 45.2694 79.8252C36.9926 72.2292 29.5 62.3291 29.5 51.662C29.5 48.0618 30.6362 44.5522 32.7487 41.6302C34.8613 38.708 37.8436 36.5214 41.2739 35.3814C44.7043 34.2414 48.4078 34.2064 51.8594 35.2813C55.3109 36.3562 58.3343 38.486 60.5022 41.3677L62.5 44.0233L64.4978 41.3677C66.6657 38.486 69.6891 36.3562 73.1406 35.2813C76.5922 34.2064 80.2957 34.2414 83.7261 35.3814C87.1564 36.5214 90.1387 38.708 92.2513 41.6302C94.3638 44.5522 95.5 48.0618 95.5 51.662Z" stroke="#B44D00" stroke-width="5"/>
</svg>
