<svg width="65" height="65" viewBox="0 0 65 65" fill="none" xmlns="http://www.w3.org/2000/svg">
<path d="M5.41675 22.75C5.41641 20.8064 5.80349 18.8823 6.55534 17.09C7.30719 15.2977 8.40875 13.6733 9.79562 12.3117C11.1825 10.95 12.8269 9.87843 14.6326 9.15959C16.4384 8.44075 18.3693 8.08904 20.3126 8.12504C22.6119 8.11283 24.8875 8.58943 26.9886 9.52327C29.0897 10.4571 30.9684 11.8268 32.5001 13.5417C34.0318 11.8268 35.9104 10.4571 38.0116 9.52327C40.1127 8.58943 42.3883 8.11283 44.6876 8.12504C46.6308 8.08904 48.5618 8.44075 50.3675 9.15959C52.1733 9.87843 53.8177 10.95 55.2045 12.3117C56.5914 13.6733 57.693 15.2977 58.4448 17.09C59.1967 18.8823 59.5838 20.8064 59.5834 22.75C59.5834 37.2559 42.307 48.2084 32.5001 56.875C22.7149 48.1352 5.41675 37.2667 5.41675 22.75Z" fill="#413125"/>
</svg>
