<svg width="40" height="40" viewBox="0 0 40 40" fill="none" xmlns="http://www.w3.org/2000/svg">
<path d="M12.8915 3.30554H26.7749C32.0638 3.30554 36.361 7.60276 36.361 12.8917V26.775C36.361 29.3174 35.351 31.7556 33.5533 33.5534C31.7555 35.3511 29.3173 36.3611 26.7749 36.3611H12.8915C7.60264 36.3611 3.30542 32.0639 3.30542 26.775V12.8917C3.30542 10.3493 4.31538 7.91099 6.11313 6.11325C7.91087 4.3155 10.3491 3.30554 12.8915 3.30554ZM12.561 6.6111C10.9829 6.6111 9.46953 7.23797 8.35369 8.35381C7.23785 9.46965 6.61098 10.9831 6.61098 12.5611V27.1055C6.61098 30.3946 9.27195 33.0555 12.561 33.0555H27.1054C28.6835 33.0555 30.1969 32.4287 31.3127 31.3128C32.4286 30.197 33.0554 28.6836 33.0554 27.1055V12.5611C33.0554 9.27207 30.3944 6.6111 27.1054 6.6111H12.561ZM28.5103 9.09026C29.0582 9.09026 29.5837 9.30793 29.9711 9.69537C30.3586 10.0828 30.5763 10.6083 30.5763 11.1562C30.5763 11.7042 30.3586 12.2297 29.9711 12.6171C29.5837 13.0045 29.0582 13.2222 28.5103 13.2222C27.9624 13.2222 27.4369 13.0045 27.0494 12.6171C26.662 12.2297 26.4443 11.7042 26.4443 11.1562C26.4443 10.6083 26.662 10.0828 27.0494 9.69537C27.4369 9.30793 27.9624 9.09026 28.5103 9.09026ZM19.8332 11.5694C22.0249 11.5694 24.1269 12.4401 25.6767 13.9899C27.2264 15.5396 28.0971 17.6416 28.0971 19.8333C28.0971 22.025 27.2264 24.127 25.6767 25.6768C24.1269 27.2266 22.0249 28.0972 19.8332 28.0972C17.6415 28.0972 15.5395 27.2266 13.9897 25.6768C12.44 24.127 11.5693 22.025 11.5693 19.8333C11.5693 17.6416 12.44 15.5396 13.9897 13.9899C15.5395 12.4401 17.6415 11.5694 19.8332 11.5694ZM19.8332 14.875C18.5182 14.875 17.257 15.3974 16.3271 16.3272C15.3973 17.2571 14.8749 18.5183 14.8749 19.8333C14.8749 21.1484 15.3973 22.4095 16.3271 23.3394C17.257 24.2693 18.5182 24.7917 19.8332 24.7917C21.1482 24.7917 22.4094 24.2693 23.3393 23.3394C24.2691 22.4095 24.7915 21.1484 24.7915 19.8333C24.7915 18.5183 24.2691 17.2571 23.3393 16.3272C22.4094 15.3974 21.1482 14.875 19.8332 14.875Z" fill="white"/>
</svg>
