<svg width="55" height="98" viewBox="0 0 55 98" fill="none" xmlns="http://www.w3.org/2000/svg">
<g clip-path="url(#clip0_247_1170)">
<path d="M3.24603 96.1061V49.6682C3.24603 47.6575 0.118896 47.6512 0.118896 49.6682V96.1061C0.118896 98.1169 3.24603 98.1231 3.24603 96.1061V96.1061Z" fill="#EAEEED"/>
<path d="M1.83884 51.232H53.4365C55.4473 51.232 55.4535 48.1049 53.4365 48.1049H1.83884C-0.17191 48.1049 -0.178164 51.232 1.83884 51.232Z" fill="#EAEEED"/>
<path d="M54.9996 96.2625V1.51041C54.9996 -0.50034 51.8724 -0.506594 51.8724 1.51041V96.2625C51.8724 98.2732 54.9996 98.2795 54.9996 96.2625Z" fill="#EAEEED"/>
<path d="M7.36502 48.4627C7.40384 48.4627 7.42809 48.487 7.4378 48.5355C7.45721 48.584 7.45235 48.618 7.42324 48.6374L5.82215 49.3942C5.76393 49.4137 5.72512 49.4234 5.70571 49.4234C5.57956 49.4234 5.47282 49.3166 5.38549 49.1031C5.29816 48.8897 5.24964 48.5937 5.23994 48.2153C4.8809 48.5937 4.50246 48.8994 4.10462 49.1322C3.71647 49.3651 3.27981 49.4816 2.79463 49.4816C2.38708 49.4816 2.00864 49.3651 1.65931 49.1322C1.31969 48.8994 1.04314 48.5743 0.829657 48.157C0.625881 47.7301 0.523994 47.2449 0.523994 46.7015C0.523994 46.0125 0.693806 45.4255 1.03343 44.9403C1.37306 44.4551 1.80002 44.0912 2.31431 43.8486C2.8286 43.6061 3.33803 43.4848 3.84262 43.4848C4.35691 43.4848 4.82268 43.6109 5.23994 43.8632V40.6028C5.23994 40.2535 5.20112 40.0012 5.12349 39.8459C5.05557 39.6907 4.93427 39.613 4.75961 39.613C4.63346 39.613 4.41028 39.681 4.09006 39.8168H4.06095C4.02214 39.8168 3.99303 39.7974 3.97362 39.7586C3.96391 39.7101 3.97362 39.6761 4.00273 39.6567L5.85126 38.7543C5.87067 38.7446 5.89493 38.7397 5.92404 38.7397C5.94345 38.7397 5.9677 38.7543 5.99682 38.7834C6.03563 38.8028 6.05504 38.827 6.05504 38.8562V47.6913C6.05504 48.0406 6.09385 48.2929 6.17148 48.4481C6.25881 48.6034 6.39466 48.681 6.57903 48.681C6.86043 48.681 7.11273 48.6131 7.33591 48.4773L7.36502 48.4627ZM3.36229 48.9576C3.71162 48.9576 4.03669 48.8751 4.3375 48.7101C4.63831 48.5355 4.93912 48.2929 5.23994 47.9824V44.7802C5.00705 44.46 4.7499 44.2125 4.4685 44.0379C4.1871 43.8632 3.84747 43.7759 3.44962 43.7759C2.8383 43.7759 2.35312 43.9942 1.99409 44.4309C1.64476 44.8578 1.47009 45.4691 1.47009 46.2648C1.47009 46.7985 1.55257 47.2692 1.71753 47.6767C1.8825 48.0843 2.10568 48.3996 2.38708 48.6228C2.67819 48.846 3.00326 48.9576 3.36229 48.9576ZM13.4887 48.5064C13.5276 48.5064 13.5518 48.5306 13.5615 48.5791C13.5712 48.618 13.5567 48.6471 13.5179 48.6665L12.0186 49.3797C11.9798 49.3991 11.941 49.4088 11.9022 49.4088C11.7761 49.4088 11.6645 49.3263 11.5674 49.1614C11.4704 48.9867 11.4073 48.7538 11.3782 48.4627L10.6213 48.9576C10.3787 49.1128 10.1653 49.2244 9.9809 49.2924C9.79653 49.3603 9.60246 49.3942 9.39868 49.3942C9.03965 49.3942 8.75824 49.3021 8.55447 49.1177C8.3604 48.9236 8.26336 48.681 8.26336 48.3899C8.26336 48.0988 8.3798 47.8465 8.61269 47.633C8.84558 47.4196 9.22887 47.2158 9.76256 47.0217L11.3637 46.4249V45.4352C11.3637 44.3484 11.058 43.805 10.4467 43.805C10.1167 43.805 9.86445 43.9166 9.68979 44.1398C9.52483 44.3532 9.41324 44.6007 9.35501 44.8821C9.3259 45.0567 9.27253 45.2023 9.1949 45.3187C9.11728 45.4255 8.98628 45.4788 8.80191 45.4788C8.64665 45.4788 8.52536 45.4352 8.43803 45.3479C8.3604 45.2605 8.32158 45.1586 8.32158 45.0422C8.32158 44.8093 8.47199 44.5764 8.7728 44.3435C9.07361 44.1106 9.43264 43.9166 9.8499 43.7613C10.2672 43.6061 10.6407 43.5284 10.9707 43.5284C11.3685 43.5284 11.6693 43.6546 11.8731 43.9069C12.0769 44.1592 12.1788 44.523 12.1788 44.9985V47.7204C12.1788 48.06 12.2224 48.3074 12.3098 48.4627C12.3971 48.618 12.5426 48.6956 12.7464 48.6956C12.9308 48.6956 13.1685 48.6325 13.4596 48.5064H13.4887ZM11.3637 48.2589V48.1861V46.6287L10.01 47.1527C9.73831 47.2595 9.53938 47.3856 9.41324 47.5312C9.29679 47.667 9.23857 47.832 9.23857 48.026C9.23857 48.2589 9.31135 48.4579 9.4569 48.6228C9.61216 48.7781 9.81108 48.8557 10.0537 48.8557C10.2477 48.8557 10.4806 48.7781 10.7523 48.6228L11.3637 48.2589ZM20.7511 49.1177C20.7802 49.1177 20.7947 49.1468 20.7947 49.205C20.7947 49.2632 20.7802 49.2924 20.7511 49.2924C20.5279 49.2924 20.3532 49.2875 20.2271 49.2778L19.4411 49.2632L18.6405 49.2778C18.5144 49.2875 18.3397 49.2924 18.1166 49.2924C18.0874 49.2924 18.0729 49.2632 18.0729 49.205C18.0729 49.1468 18.0874 49.1177 18.1166 49.1177C18.3786 49.1177 18.5726 49.0934 18.6988 49.0449C18.8249 48.9867 18.9074 48.8897 18.9462 48.7538C18.9947 48.618 19.019 48.4045 19.019 48.1134V45.7554C19.019 45.1829 18.9074 44.7608 18.6842 44.4891C18.4707 44.2174 18.136 44.0815 17.6799 44.0815C17.3791 44.0815 17.0734 44.164 16.7629 44.329C16.4621 44.4842 16.1855 44.7026 15.9332 44.984V48.1134C15.9332 48.4045 15.9527 48.618 15.9915 48.7538C16.04 48.8897 16.1273 48.9867 16.2535 49.0449C16.3796 49.0934 16.5737 49.1177 16.8357 49.1177C16.8648 49.1177 16.8793 49.1468 16.8793 49.205C16.8793 49.2632 16.8648 49.2924 16.8357 49.2924C16.6125 49.2924 16.4378 49.2875 16.3117 49.2778L15.5257 49.2632L14.7252 49.2778C14.599 49.2875 14.4243 49.2924 14.2012 49.2924C14.172 49.2924 14.1575 49.2632 14.1575 49.205C14.1575 49.1468 14.172 49.1177 14.2012 49.1177C14.4632 49.1177 14.6572 49.0934 14.7834 49.0449C14.9095 48.9867 14.992 48.8897 15.0308 48.7538C15.0793 48.618 15.1036 48.4045 15.1036 48.1134V45.2314C15.1036 44.9015 15.0648 44.6637 14.9871 44.5182C14.9095 44.3726 14.7785 44.2999 14.5942 44.2999C14.4389 44.2999 14.1769 44.3726 13.8082 44.5182H13.7791C13.7402 44.5182 13.7111 44.4988 13.6917 44.46C13.682 44.4115 13.6966 44.3775 13.7354 44.3581L15.4238 43.5575L15.5111 43.543C15.5985 43.543 15.6907 43.6546 15.7877 43.8778C15.8847 44.1009 15.9332 44.3872 15.9332 44.7365C16.302 44.3096 16.6659 43.9942 17.0249 43.7904C17.3936 43.5867 17.7721 43.4848 18.1602 43.4848C18.7036 43.4848 19.1209 43.6352 19.412 43.936C19.7031 44.2368 19.8486 44.6783 19.8486 45.2605V48.1134C19.8486 48.4045 19.8681 48.618 19.9069 48.7538C19.9554 48.8897 20.0427 48.9867 20.1689 49.0449C20.295 49.0934 20.4891 49.1177 20.7511 49.1177ZM28.4305 48.4627C28.4693 48.4627 28.4936 48.487 28.5033 48.5355C28.5227 48.584 28.5178 48.618 28.4887 48.6374L26.8876 49.3942C26.8294 49.4137 26.7906 49.4234 26.7712 49.4234C26.6451 49.4234 26.5383 49.3166 26.451 49.1031C26.3637 48.8897 26.3151 48.5937 26.3054 48.2153C25.9464 48.5937 25.568 48.8994 25.1701 49.1322C24.782 49.3651 24.3453 49.4816 23.8601 49.4816C23.4526 49.4816 23.0741 49.3651 22.7248 49.1322C22.3852 48.8994 22.1086 48.5743 21.8952 48.157C21.6914 47.7301 21.5895 47.2449 21.5895 46.7015C21.5895 46.0125 21.7593 45.4255 22.0989 44.9403C22.4386 44.4551 22.8655 44.0912 23.3798 43.8486C23.8941 43.6061 24.4035 43.4848 24.9081 43.4848C25.4224 43.4848 25.8882 43.6109 26.3054 43.8632V40.6028C26.3054 40.2535 26.2666 40.0012 26.189 39.8459C26.1211 39.6907 25.9998 39.613 25.8251 39.613C25.699 39.613 25.4758 39.681 25.1556 39.8168H25.1264C25.0876 39.8168 25.0585 39.7974 25.0391 39.7586C25.0294 39.7101 25.0391 39.6761 25.0682 39.6567L26.9168 38.7543C26.9362 38.7446 26.9604 38.7397 26.9895 38.7397C27.0089 38.7397 27.0332 38.7543 27.0623 38.7834C27.1011 38.8028 27.1205 38.827 27.1205 38.8562V47.6913C27.1205 48.0406 27.1593 48.2929 27.237 48.4481C27.3243 48.6034 27.4602 48.681 27.6445 48.681C27.9259 48.681 28.1782 48.6131 28.4014 48.4773L28.4305 48.4627ZM24.4278 48.9576C24.7771 48.9576 25.1022 48.8751 25.403 48.7101C25.7038 48.5355 26.0046 48.2929 26.3054 47.9824V44.7802C26.0725 44.46 25.8154 44.2125 25.534 44.0379C25.2526 43.8632 24.913 43.7759 24.5151 43.7759C23.9038 43.7759 23.4186 43.9942 23.0596 44.4309C22.7103 44.8578 22.5356 45.4691 22.5356 46.2648C22.5356 46.7985 22.6181 47.2692 22.783 47.6767C22.948 48.0843 23.1712 48.3996 23.4526 48.6228C23.7437 48.846 24.0688 48.9576 24.4278 48.9576ZM33.7391 48.4773C33.7682 48.4773 33.7925 48.4967 33.8119 48.5355C33.841 48.5646 33.8459 48.5937 33.8265 48.6228C33.186 49.1856 32.4777 49.467 31.7014 49.467C31.1386 49.467 30.6582 49.336 30.2604 49.074C29.8626 48.812 29.5569 48.4676 29.3434 48.0406C29.1396 47.6136 29.0377 47.1576 29.0377 46.6724C29.0377 46.0999 29.1736 45.5759 29.4453 45.1004C29.717 44.6152 30.0857 44.2368 30.5515 43.9651C31.027 43.6837 31.5461 43.543 32.1089 43.543C32.6523 43.543 33.0696 43.6885 33.3607 43.9796C33.6518 44.2708 33.7974 44.6783 33.7974 45.2023C33.7974 45.3381 33.7828 45.4352 33.7537 45.4934C33.7343 45.5516 33.6955 45.5807 33.6372 45.5807L30.0275 45.5953C30.0081 45.8088 29.9984 45.9834 29.9984 46.1193C29.9984 46.9635 30.1973 47.6476 30.5952 48.1716C30.993 48.6956 31.551 48.9576 32.269 48.9576C32.5602 48.9576 32.8076 48.9188 33.0114 48.8411C33.2248 48.7635 33.4626 48.6422 33.7246 48.4773H33.7391ZM31.6286 43.8341C31.2114 43.8341 30.8669 43.9748 30.5952 44.2562C30.3235 44.5279 30.144 44.9112 30.0566 45.4061L32.8221 45.3479C32.8221 44.853 32.7154 44.4794 32.5019 44.2271C32.2885 43.9651 31.9973 43.8341 31.6286 43.8341ZM35.9254 44.5619C35.9254 44.9015 36.037 45.1732 36.2602 45.377C36.4834 45.571 36.8084 45.7797 37.2354 46.0028C37.575 46.1775 37.837 46.3279 38.0214 46.4541C38.2154 46.5802 38.3804 46.7452 38.5163 46.9489C38.6521 47.1527 38.72 47.4002 38.72 47.6913C38.72 48.1861 38.5357 48.6034 38.1669 48.943C37.7982 49.2827 37.2985 49.4525 36.6677 49.4525C36.1534 49.4525 35.6877 49.3069 35.2704 49.0158C35.2122 48.977 35.1831 48.9188 35.1831 48.8411L35.154 47.7058C35.154 47.6767 35.1782 47.6622 35.2267 47.6622C35.285 47.6525 35.3189 47.6622 35.3286 47.6913C35.513 48.1764 35.7507 48.5452 36.0418 48.7975C36.3427 49.0498 36.6871 49.1759 37.0753 49.1759C37.3955 49.1759 37.6381 49.0983 37.803 48.943C37.968 48.7878 38.0408 48.5597 38.0214 48.2589C38.0117 47.8902 37.8952 47.6088 37.672 47.4147C37.4586 47.2109 37.1335 47.0023 36.6968 46.7888C36.3766 46.6336 36.1195 46.4929 35.9254 46.3667C35.741 46.2406 35.5809 46.0756 35.4451 45.8718C35.3189 45.6681 35.2559 45.4158 35.2559 45.115C35.2559 44.591 35.4499 44.1931 35.8381 43.9214C36.2359 43.64 36.7017 43.4993 37.2354 43.4993C37.6235 43.4993 37.9777 43.5721 38.2979 43.7176C38.3561 43.7371 38.3901 43.7613 38.3998 43.7904C38.4192 43.8098 38.4289 43.8389 38.4289 43.8778C38.4289 44.0718 38.4241 44.2222 38.4144 44.329L38.3998 44.9403C38.3998 44.9597 38.3707 44.9694 38.3125 44.9694C38.2543 44.9694 38.2251 44.9597 38.2251 44.9403C38.2251 44.7365 38.1475 44.5473 37.9923 44.3726C37.837 44.1883 37.6429 44.0427 37.41 43.936C37.1772 43.8292 36.9443 43.7759 36.7114 43.7759C36.4688 43.7759 36.2747 43.8438 36.1292 43.9796C35.9933 44.1058 35.9254 44.2999 35.9254 44.5619Z" fill="#EAEEED"/>
</g>
<defs>
<clipPath id="clip0_247_1170">
<rect width="55" height="97.7729" fill="white"/>
</clipPath>
</defs>
</svg>
