<svg width="41" height="42" viewBox="0 0 41 42" fill="none" xmlns="http://www.w3.org/2000/svg">
<path fill-rule="evenodd" clip-rule="evenodd" d="M20.944 36.75C29.2282 36.75 35.944 29.6984 35.944 21C35.944 12.3016 29.2282 5.25 20.944 5.25C12.6598 5.25 5.94401 12.3016 5.94401 21C5.94401 29.6984 12.6598 36.75 20.944 36.75ZM20.944 38.5C30.149 38.5 37.6107 30.6652 37.6107 21C37.6107 11.3347 30.149 3.5 20.944 3.5C11.739 3.5 4.27734 11.3347 4.27734 21C4.27734 30.6652 11.739 38.5 20.944 38.5Z" fill="#F9F6F3"/>
<path d="M10.9443 31.1763C10.9443 30.2724 11.5877 29.5085 12.4443 29.4088C18.8735 28.6615 23.0443 28.7289 29.4593 29.4254C29.7797 29.4607 30.0833 29.5932 30.3331 29.8067C30.5829 30.0203 30.7681 30.3055 30.866 30.6277C30.9639 30.9499 30.9704 31.2951 30.8845 31.6211C30.7987 31.9471 30.6243 32.2398 30.3827 32.4634C22.8118 39.3925 18.4852 39.2971 11.4777 32.4704C11.136 32.1379 10.9443 31.6654 10.9443 31.1771V31.1763Z" fill="#F9F6F3"/>
<path fill-rule="evenodd" clip-rule="evenodd" d="M29.3729 30.2951C23.0087 29.6039 18.8979 29.5391 12.5345 30.2785C12.3251 30.3041 12.132 30.41 11.9922 30.5758C11.8524 30.7416 11.7758 30.9557 11.777 31.1771C11.777 31.4274 11.8762 31.6645 12.0437 31.829C15.517 35.2117 18.1487 36.7404 20.7212 36.75C23.3029 36.7596 26.0762 35.2432 29.8345 31.8045C29.9539 31.6929 30.0399 31.5473 30.0819 31.3854C30.124 31.2235 30.1204 31.0522 30.0715 30.8924C30.0226 30.7326 29.9305 30.5912 29.8065 30.4853C29.6825 30.3794 29.5318 30.3137 29.3729 30.296V30.2951ZM12.352 28.539C18.8487 27.7839 23.0804 27.8521 29.5454 28.5547C30.0273 28.6076 30.4841 28.8068 30.8598 29.128C31.2356 29.4492 31.514 29.8785 31.661 30.3633C31.8079 30.8481 31.8171 31.3673 31.6873 31.8575C31.5576 32.3477 31.2945 32.7875 30.9304 33.1231C27.1179 36.6126 23.9429 38.5131 20.7162 38.5C17.4804 38.4877 14.4454 36.5549 10.9112 33.1117C10.6582 32.8643 10.4564 32.5647 10.3186 32.2316C10.1809 31.8986 10.1099 31.5393 10.1104 31.1762C10.1091 30.5239 10.3372 29.894 10.7508 29.4072C11.1645 28.9204 11.7346 28.6109 12.352 28.5381V28.539Z" fill="#F9F6F3"/>
<path d="M27.6107 17.5C27.6107 19.3565 26.9083 21.137 25.6581 22.4497C24.4078 23.7625 22.7121 24.5 20.944 24.5C19.1759 24.5 17.4802 23.7625 16.23 22.4497C14.9797 21.137 14.2773 19.3565 14.2773 17.5C14.2773 15.6435 14.9797 13.863 16.23 12.5503C17.4802 11.2375 19.1759 10.5 20.944 10.5C22.7121 10.5 24.4078 11.2375 25.6581 12.5503C26.9083 13.863 27.6107 15.6435 27.6107 17.5Z" fill="#F9F6F3"/>
<path fill-rule="evenodd" clip-rule="evenodd" d="M20.944 22.75C22.2701 22.75 23.5419 22.1969 24.4795 21.2123C25.4172 20.2277 25.944 18.8924 25.944 17.5C25.944 16.1076 25.4172 14.7723 24.4795 13.7877C23.5419 12.8031 22.2701 12.25 20.944 12.25C19.6179 12.25 18.3462 12.8031 17.4085 13.7877C16.4708 14.7723 15.944 16.1076 15.944 17.5C15.944 18.8924 16.4708 20.2277 17.4085 21.2123C18.3462 22.1969 19.6179 22.75 20.944 22.75ZM20.944 24.5C22.7121 24.5 24.4078 23.7625 25.6581 22.4497C26.9083 21.137 27.6107 19.3565 27.6107 17.5C27.6107 15.6435 26.9083 13.863 25.6581 12.5503C24.4078 11.2375 22.7121 10.5 20.944 10.5C19.1759 10.5 17.4802 11.2375 16.23 12.5503C14.9797 13.863 14.2773 15.6435 14.2773 17.5C14.2773 19.3565 14.9797 21.137 16.23 22.4497C17.4802 23.7625 19.1759 24.5 20.944 24.5Z" fill="#F9F6F3"/>
</svg>
