<svg width="40" height="40" viewBox="0 0 40 40" fill="none" xmlns="http://www.w3.org/2000/svg">
<path d="M31.6559 33.8333L22.5559 24.5C21.7434 25.1666 20.809 25.6944 19.7527 26.0833C18.6965 26.4722 17.5725 26.6666 16.3809 26.6666C13.4288 26.6666 10.9306 25.6183 8.88636 23.5216C6.84103 21.4239 5.81836 18.8611 5.81836 15.8333C5.81836 12.8055 6.84103 10.2427 8.88636 8.14497C10.9306 6.0483 13.4288 4.99997 16.3809 4.99997C19.3329 4.99997 21.8317 6.0483 23.877 8.14497C25.9212 10.2427 26.9434 12.8055 26.9434 15.8333C26.9434 17.0555 26.7538 18.2083 26.3746 19.2916C25.9954 20.375 25.4809 21.3333 24.8309 22.1666L33.9715 31.5416C34.2694 31.8472 34.4184 32.2222 34.4184 32.6666C34.4184 33.1111 34.2559 33.5 33.9309 33.8333C33.6329 34.1389 33.2538 34.2916 32.7934 34.2916C32.3329 34.2916 31.9538 34.1389 31.6559 33.8333V33.8333ZM16.3809 23.3333C18.4121 23.3333 20.1389 22.6044 21.5614 21.1466C22.9827 19.6877 23.6934 17.9166 23.6934 15.8333C23.6934 13.75 22.9827 11.9789 21.5614 10.52C20.1389 9.06219 18.4121 8.3333 16.3809 8.3333C14.3496 8.3333 12.6228 9.06219 11.2004 10.52C9.77903 11.9789 9.06836 13.75 9.06836 15.8333C9.06836 17.9166 9.77903 19.6877 11.2004 21.1466C12.6228 22.6044 14.3496 23.3333 16.3809 23.3333Z" fill="#F9F6F3"/>
</svg>
