<svg width="37" height="36" viewBox="0 0 37 36" fill="none" xmlns="http://www.w3.org/2000/svg">
<path d="M33.2361 36L20.6361 23.4C19.6361 24.2 18.4861 24.8333 17.1861 25.3C15.8861 25.7667 14.5027 26 13.0361 26C9.40274 26 6.32807 24.742 3.81207 22.226C1.29474 19.7087 0.0360718 16.6333 0.0360718 13C0.0360718 9.36667 1.29474 6.29133 3.81207 3.774C6.32807 1.258 9.40274 0 13.0361 0C16.6694 0 19.7447 1.258 22.2621 3.774C24.7781 6.29133 26.0361 9.36667 26.0361 13C26.0361 14.4667 25.8027 15.85 25.3361 17.15C24.8694 18.45 24.2361 19.6 23.4361 20.6L36.0361 33.2L33.2361 36ZM13.0361 22C15.5361 22 17.6614 21.1253 19.4121 19.376C21.1614 17.6253 22.0361 15.5 22.0361 13C22.0361 10.5 21.1614 8.37467 19.4121 6.624C17.6614 4.87467 15.5361 4 13.0361 4C10.5361 4 8.41074 4.87467 6.66007 6.624C4.91074 8.37467 4.03607 10.5 4.03607 13C4.03607 15.5 4.91074 17.6253 6.66007 19.376C8.41074 21.1253 10.5361 22 13.0361 22Z" fill="#EAEEED"/>
</svg>
