<svg width="33" height="31" viewBox="0 0 33 31" fill="none" xmlns="http://www.w3.org/2000/svg">
<path d="M0.193237 10.0001C0.193037 8.80402 0.42528 7.61993 0.876392 6.51699C1.3275 5.41405 1.98844 4.4144 2.82056 3.57646C3.65268 2.73852 4.63931 2.07909 5.72276 1.63673C6.80622 1.19436 7.96479 0.977929 9.13074 1.00008C10.5103 0.992564 11.8757 1.28586 13.1363 1.86053C14.397 2.4352 15.5242 3.27811 16.4432 4.33341C17.3622 3.27811 18.4894 2.4352 19.7501 1.86053C21.0108 1.28586 22.3762 0.992564 23.7557 1.00008C24.9217 0.977929 26.0802 1.19436 27.1637 1.63673C28.2472 2.07909 29.2338 2.73852 30.0659 3.57646C30.898 4.4144 31.559 5.41405 32.0101 6.51699C32.4612 7.61993 32.6934 8.80402 32.6932 10.0001C32.6932 18.9267 22.3274 25.6667 16.4432 31.0001C10.5721 25.6217 0.193237 18.9334 0.193237 10.0001Z" fill="#EAEEED"/>
</svg>
