<svg width="42" height="34" viewBox="0 0 42 34" fill="none" xmlns="http://www.w3.org/2000/svg">
<path d="M6.18607 9.05937V4.625C6.18607 2.35625 8.03107 0.5 10.2861 0.5H30.7861C33.0411 0.5 34.8861 2.35625 34.8861 4.625V9.08C32.5081 9.92562 30.7861 12.1944 30.7861 14.8756V19.0625H10.2861V14.855C10.2861 12.1944 8.56407 9.905 6.18607 9.05937ZM36.9361 10.8125C34.6811 10.8125 32.8361 12.6687 32.8361 14.9375V21.125H8.23607V14.9375C8.23607 13.8435 7.80411 12.7943 7.03521 12.0207C6.26631 11.2471 5.22346 10.8125 4.13607 10.8125C3.04868 10.8125 2.00583 11.2471 1.23693 12.0207C0.468035 12.7943 0.0360718 13.8435 0.0360718 14.9375V25.25C0.0360718 27.5187 1.88107 29.375 4.13607 29.375V33.5H8.23607V29.375H32.8361V33.5H36.9361V29.375C39.1911 29.375 41.0361 27.5187 41.0361 25.25V14.9375C41.0361 12.6687 39.1911 10.8125 36.9361 10.8125Z" fill="#EAEEED"/>
</svg>
