<svg width="49" height="48" viewBox="0 0 49 48" fill="none" xmlns="http://www.w3.org/2000/svg">
<path d="M4.44336 16.8C4.44311 15.3648 4.72895 13.9438 5.28417 12.6203C5.83938 11.2968 6.65283 10.0972 7.67699 9.09168C8.70114 8.08615 9.91544 7.29484 11.2489 6.764C12.5824 6.23316 14.0083 5.97344 15.4434 6.00002C17.1413 5.991 18.8217 6.34296 20.3733 7.03256C21.9249 7.72216 23.3123 8.73366 24.4434 10C25.5745 8.73366 26.9618 7.72216 28.5134 7.03256C30.065 6.34296 31.7454 5.991 33.4434 6.00002C34.8784 5.97344 36.3043 6.23316 37.6378 6.764C38.9713 7.29484 40.1856 8.08615 41.2097 9.09168C42.2339 10.0972 43.0473 11.2968 43.6026 12.6203C44.1578 13.9438 44.4436 15.3648 44.4434 16.8C44.4434 27.512 31.6854 35.6 24.4434 42C17.2174 35.546 4.44336 27.52 4.44336 16.8Z" fill="#F9F6F3"/>
</svg>
