<svg width="35" height="34" viewBox="0 0 35 34" fill="none" xmlns="http://www.w3.org/2000/svg">
<path d="M32.4602 14.6366H32.4933C33.0632 14.6366 33.578 14.9013 33.9457 15.3288C34.3256 15.7438 34.561 16.3229 34.561 16.9641V17.0027V17.0013V17.0385C34.561 17.6797 34.3256 18.2588 33.9457 18.6725C33.5768 19.0999 33.062 19.3647 32.4921 19.3647H32.4577H32.459H32.2126L30.3239 31.5939C30.2439 32.1435 29.988 32.6413 29.6044 32.9934L29.6007 32.9962C29.2453 33.3395 28.7795 33.5491 28.2709 33.5491H7.23001C6.72136 33.5491 6.25561 33.3395 5.89772 32.9934L5.90017 32.9962C5.51782 32.6468 5.26163 32.1527 5.17949 31.6063L5.17826 31.5925L3.28952 19.3633H3.01007C2.44014 19.3633 1.92536 19.0986 1.55766 18.6711C1.36272 18.459 1.20777 18.2049 1.10205 17.9239C0.99634 17.6429 0.942036 17.3409 0.942384 17.0358V16.9613C0.942384 16.3202 1.17771 15.741 1.55766 15.3274C1.92659 14.8999 2.44136 14.6352 3.0113 14.6352H3.04561H3.04439L32.4602 14.6366ZM8.89936 29.4097C9.03688 29.3992 9.17102 29.357 9.2935 29.2859C9.41597 29.2147 9.52419 29.1161 9.61147 28.9961L9.61269 28.9947C9.7058 28.8784 9.77652 28.7416 9.82039 28.5931C9.86427 28.4445 9.88035 28.2874 9.86763 28.1315V28.1357L9.34182 20.4526C9.33244 20.2979 9.29497 20.147 9.23173 20.0092C9.16849 19.8714 9.08082 19.7497 8.97412 19.6515L8.9729 19.6501C8.86951 19.5454 8.74797 19.4658 8.61593 19.4165C8.48388 19.3671 8.34419 19.349 8.20564 19.3633H8.20931C8.07179 19.3739 7.93765 19.416 7.81517 19.4872C7.6927 19.5583 7.58448 19.6569 7.49721 19.777L7.49598 19.7784C7.40287 19.8947 7.33215 20.0314 7.28828 20.1799C7.2444 20.3285 7.22832 20.4856 7.24104 20.6415V20.6374L7.76685 28.3204C7.78434 28.6182 7.90491 28.8964 8.10268 29.0953L8.10391 29.0967C8.29312 29.2988 8.5441 29.4113 8.80498 29.4111H8.81846H8.81724L8.89936 29.4097ZM15.6466 28.2294V20.5353C15.647 20.3822 15.6196 20.2305 15.5661 20.0897C15.5125 19.9489 15.434 19.8218 15.3353 19.7163C15.2412 19.6053 15.128 19.5171 15.0027 19.4569C14.8773 19.3966 14.7423 19.3658 14.606 19.3661H14.5864C14.4503 19.3656 14.3155 19.3965 14.1903 19.4567C14.0651 19.5169 13.9521 19.6052 13.8584 19.7163C13.7597 19.8222 13.6813 19.9495 13.6278 20.0905C13.5742 20.2316 13.5468 20.3834 13.5471 20.5367V28.2418C13.5471 28.5645 13.6659 28.8554 13.8584 29.0609C13.9525 29.1718 14.0656 29.2601 14.191 29.3203C14.3164 29.3805 14.4513 29.4114 14.5876 29.4111H14.6072C14.7434 29.4116 14.8782 29.3807 15.0034 29.3205C15.1286 29.2603 15.2415 29.1719 15.3353 29.0609C15.4353 28.955 15.5149 28.8272 15.5693 28.6854C15.6237 28.5436 15.6517 28.3908 15.6515 28.2363V28.228L15.6466 28.2294ZM21.9502 28.2294V20.5353C21.9506 20.3822 21.9232 20.2305 21.8696 20.0897C21.8161 19.9489 21.7376 19.8218 21.6389 19.7163C21.5448 19.6053 21.4316 19.5171 21.3062 19.4569C21.1808 19.3966 21.0459 19.3658 20.9096 19.3661H20.89C20.7538 19.3656 20.619 19.3965 20.4938 19.4567C20.3686 19.5169 20.2557 19.6052 20.1619 19.7163C20.0633 19.8222 19.9848 19.9495 19.9313 20.0905C19.8778 20.2316 19.8503 20.3834 19.8506 20.5367V28.2418C19.8506 28.5645 19.9695 28.8554 20.1619 29.0609C20.256 29.1718 20.3692 29.2601 20.4946 29.3203C20.6199 29.3805 20.7549 29.4114 20.8912 29.4111H20.9108C21.047 29.4116 21.1818 29.3807 21.3069 29.3205C21.4321 29.2603 21.5451 29.1719 21.6389 29.0609C21.7388 28.955 21.8185 28.8272 21.8728 28.6854C21.9272 28.5436 21.9552 28.3908 21.9551 28.2363V28.228L21.9502 28.2294ZM27.7279 28.3204L28.2537 20.6374C28.2656 20.482 28.2491 20.3255 28.2053 20.1776C28.1614 20.0296 28.0912 19.8933 27.9988 19.777L28 19.7784C27.913 19.6582 27.805 19.5592 27.6828 19.4876C27.5605 19.416 27.4266 19.3733 27.2891 19.3619H27.2855C27.1473 19.3486 27.0082 19.3671 26.8767 19.4165C26.7452 19.4658 26.624 19.5448 26.5206 19.6487L26.5219 19.6474C26.415 19.7453 26.3271 19.8668 26.2635 20.0043C26.1998 20.1418 26.1618 20.2925 26.1517 20.4471V20.4512L25.6259 28.1343C25.6141 28.2897 25.6306 28.4461 25.6744 28.5941C25.7182 28.7421 25.7885 28.8784 25.8809 28.9947L25.8796 28.9933C25.9667 29.1135 26.0746 29.2124 26.1969 29.284C26.3191 29.3556 26.4531 29.3984 26.5905 29.4097H26.6886C26.9498 29.4097 27.2011 29.2972 27.3909 29.0953C27.5912 28.8967 27.714 28.6173 27.7328 28.3177V28.3135L27.7279 28.3204ZM8.75718 5.84491L7.23124 13.4535H5.06427L6.72136 5.30991C6.92115 4.2275 7.4445 3.31056 8.17009 2.66939L8.17867 2.66249C8.90887 1.99633 9.82101 1.63398 10.7611 1.63661H10.8077H10.8053H13.5458V1.62558C13.5458 1.30293 13.6647 1.01199 13.8571 0.806538C13.9513 0.695219 14.0647 0.606636 14.1902 0.546187C14.3158 0.485737 14.451 0.454686 14.5876 0.454927H20.9145C21.2013 0.454927 21.4599 0.588677 21.6425 0.805159C21.7412 0.911011 21.8196 1.03833 21.8731 1.17937C21.9267 1.32041 21.9541 1.47223 21.9538 1.62558V1.63661H24.7398C25.7215 1.63661 26.6224 2.0227 27.3284 2.66801L27.321 2.66111C28.0645 3.31389 28.579 4.24136 28.7734 5.27958L28.7783 5.30853L30.4354 13.4521H28.2684L26.7425 5.84353C26.6316 5.3214 26.3705 4.85509 25.9997 4.51707L25.9961 4.51293C25.6353 4.17778 25.1819 3.9949 24.714 3.99585H21.9502V4.00688C21.9506 4.16006 21.9232 4.31171 21.8696 4.45254C21.8161 4.59338 21.7376 4.72044 21.6389 4.82593C21.5448 4.9369 21.4316 5.02517 21.3062 5.08538C21.1808 5.14559 21.0459 5.17647 20.9096 5.17616H14.5876C14.4515 5.17661 14.3167 5.14578 14.1915 5.08555C14.0663 5.02533 13.9534 4.93699 13.8596 4.82593C13.761 4.72008 13.6825 4.59276 13.629 4.45172C13.5755 4.31068 13.548 4.15886 13.5483 4.00551V3.99448H10.7844C10.3155 3.99388 9.86108 4.17777 9.49993 4.51431L9.50361 4.51155C9.13558 4.84687 8.87586 5.30913 8.76454 5.82699L8.76208 5.84353L8.75718 5.84491Z" fill="#F9F6F3"/>
</svg>
