<svg width="41" height="42" viewBox="0 0 41 42" fill="none" xmlns="http://www.w3.org/2000/svg">
<path fill-rule="evenodd" clip-rule="evenodd" d="M20.9436 36.75C29.2277 36.75 35.9436 29.6984 35.9436 21C35.9436 12.3016 29.2277 5.25 20.9436 5.25C12.6594 5.25 5.94358 12.3016 5.94358 21C5.94358 29.6984 12.6594 36.75 20.9436 36.75ZM20.9436 38.5C30.1486 38.5 37.6102 30.6652 37.6102 21C37.6102 11.3347 30.1486 3.5 20.9436 3.5C11.7386 3.5 4.27692 11.3347 4.27692 21C4.27692 30.6652 11.7386 38.5 20.9436 38.5Z" fill="#EAEEED"/>
<path d="M10.9435 31.1761C10.9435 30.2722 11.5869 29.5083 12.4435 29.4086C18.8727 28.6613 23.0435 28.7287 29.4585 29.4252C29.7789 29.4605 30.0825 29.593 30.3323 29.8065C30.5821 30.02 30.7673 30.3053 30.8652 30.6275C30.9631 30.9497 30.9696 31.2949 30.8837 31.6209C30.7979 31.9469 30.6235 32.2395 30.3819 32.4632C22.811 39.3923 18.4844 39.2969 11.4769 32.4702C11.1352 32.1377 10.9435 31.6652 10.9435 31.1769V31.1761Z" fill="#EAEEED"/>
<path fill-rule="evenodd" clip-rule="evenodd" d="M29.3728 30.2954C23.0086 29.6041 18.8978 29.5394 12.5345 30.2787C12.325 30.3044 12.1319 30.4102 11.9921 30.576C11.8524 30.7418 11.7758 30.9559 11.777 31.1774C11.777 31.4276 11.8761 31.6647 12.0436 31.8292C15.517 35.212 18.1486 36.7406 20.7211 36.7502C23.3028 36.7599 26.0761 35.2435 29.8345 31.8047C29.9539 31.6931 30.0398 31.5475 30.0819 31.3856C30.1239 31.2237 30.1203 31.0524 30.0714 30.8927C30.0225 30.7329 29.9304 30.5914 29.8064 30.4856C29.6824 30.3797 29.5318 30.3139 29.3728 30.2962V30.2954ZM12.352 28.5392C18.8486 27.7841 23.0803 27.8524 29.5453 28.555C30.0272 28.6078 30.484 28.807 30.8598 29.1282C31.2355 29.4494 31.5139 29.8787 31.6609 30.3635C31.8079 30.8483 31.817 31.3676 31.6873 31.8577C31.5575 32.3479 31.2945 32.7877 30.9303 33.1234C27.1178 36.6129 23.9428 38.5134 20.7161 38.5002C17.4803 38.488 14.4453 36.5551 10.9111 33.112C10.6581 32.8645 10.4564 32.5649 10.3186 32.2319C10.1808 31.8989 10.1099 31.5396 10.1103 31.1765C10.1091 30.5241 10.3371 29.8942 10.7508 29.4074C11.1644 28.9206 11.7345 28.6112 12.352 28.5384V28.5392Z" fill="#EAEEED"/>
<path d="M27.6102 17.5C27.6102 19.3565 26.9078 21.137 25.6576 22.4497C24.4073 23.7625 22.7116 24.5 20.9435 24.5C19.1754 24.5 17.4797 23.7625 16.2295 22.4497C14.9792 21.137 14.2769 19.3565 14.2769 17.5C14.2769 15.6435 14.9792 13.863 16.2295 12.5503C17.4797 11.2375 19.1754 10.5 20.9435 10.5C22.7116 10.5 24.4073 11.2375 25.6576 12.5503C26.9078 13.863 27.6102 15.6435 27.6102 17.5Z" fill="#EAEEED"/>
<path fill-rule="evenodd" clip-rule="evenodd" d="M20.9435 22.75C22.2696 22.75 23.5414 22.1969 24.4791 21.2123C25.4167 20.2277 25.9435 18.8924 25.9435 17.5C25.9435 16.1076 25.4167 14.7723 24.4791 13.7877C23.5414 12.8031 22.2696 12.25 20.9435 12.25C19.6174 12.25 18.3457 12.8031 17.408 13.7877C16.4703 14.7723 15.9435 16.1076 15.9435 17.5C15.9435 18.8924 16.4703 20.2277 17.408 21.2123C18.3457 22.1969 19.6174 22.75 20.9435 22.75ZM20.9435 24.5C22.7116 24.5 24.4073 23.7625 25.6576 22.4497C26.9078 21.137 27.6102 19.3565 27.6102 17.5C27.6102 15.6435 26.9078 13.863 25.6576 12.5503C24.4073 11.2375 22.7116 10.5 20.9435 10.5C19.1754 10.5 17.4797 11.2375 16.2295 12.5503C14.9792 13.863 14.2769 15.6435 14.2769 17.5C14.2769 19.3565 14.9792 21.137 16.2295 22.4497C17.4797 23.7625 19.1754 24.5 20.9435 24.5Z" fill="#EAEEED"/>
</svg>
