<svg width="35" height="34" viewBox="0 0 35 34" fill="none" xmlns="http://www.w3.org/2000/svg">
<path d="M32.4599 14.6367H32.493C33.063 14.6367 33.5777 14.9015 33.9454 15.3289C34.3254 15.7439 34.5607 16.3231 34.5607 16.9642V17.0028V17.0015V17.0387C34.5607 17.6799 34.3254 18.259 33.9454 18.6727C33.5765 19.1001 33.0617 19.3648 32.4918 19.3648H32.4575H32.4587H32.2124L30.3236 31.594C30.2437 32.1437 29.9878 32.6414 29.6042 32.9936L29.6005 32.9963C29.245 33.3396 28.7793 33.5492 28.2706 33.5492H7.22977C6.72112 33.5492 6.25537 33.3396 5.89748 32.9936L5.89993 32.9963C5.51757 32.6469 5.26139 32.1528 5.17924 31.6064L5.17802 31.5926L3.28928 19.3635H3.00983C2.43989 19.3635 1.92512 19.0987 1.55742 18.6713C1.36248 18.4592 1.20752 18.205 1.10181 17.9241C0.996096 17.6431 0.941792 17.341 0.94214 17.0359V16.9615C0.94214 16.3203 1.17747 15.7412 1.55742 15.3275C1.92634 14.9001 2.44112 14.6353 3.01105 14.6353H3.04537H3.04414L32.4599 14.6367ZM8.89911 29.4099C9.03664 29.3993 9.17077 29.3572 9.29325 29.286C9.41573 29.2149 9.52395 29.1162 9.61122 28.9962L9.61245 28.9948C9.70556 28.8785 9.77628 28.7418 9.82015 28.5932C9.86402 28.4447 9.88011 28.2875 9.86738 28.1317V28.1358L9.34158 20.4528C9.33219 20.2981 9.29473 20.1472 9.23149 20.0094C9.16824 19.8716 9.08057 19.7498 8.97388 19.6516L8.97265 19.6503C8.86926 19.5455 8.74772 19.466 8.61568 19.4166C8.48364 19.3672 8.34395 19.3492 8.20539 19.3635H8.20907C8.07155 19.374 7.93741 19.4162 7.81493 19.4873C7.69245 19.5585 7.58424 19.6571 7.49696 19.7771L7.49574 19.7785C7.40262 19.8948 7.33191 20.0315 7.28803 20.1801C7.24416 20.3286 7.22808 20.4858 7.2408 20.6417V20.6375L7.76661 28.3206C7.7841 28.6184 7.90467 28.8966 8.10244 29.0955L8.10366 29.0969C8.29288 29.2989 8.54386 29.4115 8.80474 29.4113H8.81822H8.81699L8.89911 29.4099ZM15.6464 28.2296V20.5355C15.6468 20.3823 15.6194 20.2307 15.5658 20.0898C15.5123 19.949 15.4338 19.8219 15.335 19.7165C15.241 19.6055 15.1278 19.5172 15.0024 19.457C14.877 19.3968 14.7421 19.3659 14.6058 19.3662H14.5862C14.45 19.3658 14.3152 19.3966 14.19 19.4568C14.0648 19.5171 13.9519 19.6054 13.8581 19.7165C13.7595 19.8223 13.681 19.9496 13.6275 20.0907C13.574 20.2317 13.5465 20.3835 13.5468 20.5369V28.242C13.5468 28.5646 13.6657 28.8556 13.8581 29.061C13.9522 29.172 14.0654 29.2603 14.1908 29.3205C14.3161 29.3807 14.4511 29.4116 14.5874 29.4113H14.607C14.7432 29.4117 14.878 29.3809 15.0031 29.3207C15.1283 29.2604 15.2413 29.1721 15.335 29.061C15.435 28.9552 15.5147 28.8274 15.569 28.6856C15.6234 28.5438 15.6514 28.3909 15.6513 28.2365V28.2282L15.6464 28.2296ZM21.9499 28.2296V20.5355C21.9503 20.3823 21.9229 20.2307 21.8694 20.0898C21.8158 19.949 21.7373 19.8219 21.6386 19.7165C21.5445 19.6055 21.4313 19.5172 21.306 19.457C21.1806 19.3968 21.0457 19.3659 20.9093 19.3662H20.8897C20.7536 19.3658 20.6188 19.3966 20.4936 19.4568C20.3684 19.5171 20.2555 19.6054 20.1617 19.7165C20.0631 19.8223 19.9846 19.9496 19.9311 20.0907C19.8776 20.2317 19.8501 20.3835 19.8504 20.5369V28.242C19.8504 28.5646 19.9693 28.8556 20.1617 29.061C20.2558 29.172 20.369 29.2603 20.4943 29.3205C20.6197 29.3807 20.7546 29.4116 20.891 29.4113H20.9106C21.0467 29.4117 21.1815 29.3809 21.3067 29.3207C21.4319 29.2604 21.5448 29.1721 21.6386 29.061C21.7386 28.9552 21.8182 28.8274 21.8726 28.6856C21.927 28.5438 21.955 28.3909 21.9548 28.2365V28.2282L21.9499 28.2296ZM27.7277 28.3206L28.2535 20.6375C28.2653 20.4821 28.2488 20.3257 28.205 20.1777C28.1612 20.0297 28.0909 19.8934 27.9985 19.7771L27.9998 19.7785C27.9127 19.6583 27.8048 19.5594 27.6825 19.4878C27.5603 19.4162 27.4263 19.3734 27.2889 19.3621H27.2852C27.1471 19.3487 27.008 19.3673 26.8765 19.4166C26.745 19.4659 26.6238 19.545 26.5204 19.6489L26.5216 19.6475C26.4148 19.7455 26.3269 19.8669 26.2632 20.0044C26.1996 20.1419 26.1615 20.2926 26.1515 20.4473V20.4514L25.6257 28.1344C25.6138 28.2898 25.6303 28.4463 25.6741 28.5943C25.718 28.7422 25.7882 28.8785 25.8806 28.9948L25.8794 28.9935C25.9664 29.1137 26.0744 29.2126 26.1966 29.2842C26.3189 29.3558 26.4528 29.3986 26.5903 29.4099H26.6883C26.9495 29.4099 27.2008 29.2974 27.3906 29.0955C27.5909 28.8968 27.7137 28.6175 27.7326 28.3178V28.3137L27.7277 28.3206ZM8.75694 5.84507L7.23099 13.4536H5.06403L6.72112 5.31007C6.9209 4.22766 7.44426 3.31071 8.16985 2.66954L8.17843 2.66264C8.90863 1.99648 9.82077 1.63413 10.7609 1.63677H10.8075H10.805H13.5456V1.62574C13.5456 1.30308 13.6645 1.01214 13.8569 0.80669C13.9511 0.695372 14.0644 0.606789 14.19 0.546339C14.3156 0.48589 14.4508 0.454839 14.5874 0.45508H20.9142C21.201 0.45508 21.4597 0.588829 21.6423 0.805311C21.7409 0.911164 21.8194 1.03848 21.8729 1.17952C21.9264 1.32057 21.9539 1.47238 21.9536 1.62574V1.63677H24.7395C25.7213 1.63677 26.6221 2.02285 27.3281 2.66816L27.3208 2.66126C28.0643 3.31405 28.5787 4.24151 28.7732 5.27973L28.7781 5.30869L30.4352 13.4523H28.2682L26.7422 5.84369C26.6313 5.32155 26.3702 4.85524 25.9995 4.51722L25.9958 4.51308C25.6351 4.17794 25.1816 3.99505 24.7138 3.99601H21.9499V4.00704C21.9503 4.16021 21.9229 4.31186 21.8694 4.4527C21.8158 4.59353 21.7373 4.72059 21.6386 4.82608C21.5445 4.93705 21.4313 5.02532 21.306 5.08553C21.1806 5.14574 21.0457 5.17663 20.9093 5.17632H14.5874C14.4512 5.17676 14.3164 5.14593 14.1913 5.08571C14.0661 5.02548 13.9531 4.93714 13.8594 4.82608C13.7607 4.72023 13.6823 4.59291 13.6287 4.45187C13.5752 4.31083 13.5478 4.15901 13.548 4.00566V3.99463H10.7842C10.3152 3.99403 9.86084 4.17792 9.49969 4.51446L9.50336 4.5117C9.13533 4.84702 8.87562 5.30928 8.76429 5.82714L8.76184 5.84369L8.75694 5.84507Z" fill="#EAEEED"/>
</svg>
