<svg width="42" height="39" viewBox="0 0 42 39" fill="none" xmlns="http://www.w3.org/2000/svg">
<path d="M33.075 32.9875L23.275 23.8875C22.4 24.5375 21.3937 25.0521 20.2562 25.4312C19.1187 25.8104 17.9083 26 16.625 26C13.4458 26 10.7555 24.9778 8.554 22.9336C6.35133 20.8883 5.25 18.3896 5.25 15.4375C5.25 12.4854 6.35133 9.98668 8.554 7.94134C10.7555 5.89709 13.4458 4.87497 16.625 4.87497C19.8042 4.87497 22.4951 5.89709 24.6978 7.94134C26.8993 9.98668 28 12.4854 28 15.4375C28 16.6291 27.7958 17.7531 27.3875 18.8093C26.9792 19.8656 26.425 20.8 25.725 21.6125L35.5688 30.7531C35.8896 31.051 36.05 31.4166 36.05 31.85C36.05 32.2833 35.875 32.6625 35.525 32.9875C35.2042 33.2854 34.7958 33.4343 34.3 33.4343C33.8042 33.4343 33.3958 33.2854 33.075 32.9875ZM16.625 22.75C18.8125 22.75 20.6722 22.0393 22.204 20.618C23.7347 19.1956 24.5 17.4687 24.5 15.4375C24.5 13.4062 23.7347 11.6794 22.204 10.257C20.6722 8.83564 18.8125 8.12497 16.625 8.12497C14.4375 8.12497 12.5778 8.83564 11.046 10.257C9.51533 11.6794 8.75 13.4062 8.75 15.4375C8.75 17.4687 9.51533 19.1956 11.046 20.618C12.5778 22.0393 14.4375 22.75 16.625 22.75Z" fill="#413125"/>
</svg>
