<svg width="56" height="49" viewBox="0 0 56 49" fill="none" xmlns="http://www.w3.org/2000/svg">
<path d="M52.4282 20.5719H52.4822C53.4122 20.5719 54.2522 20.9559 54.8522 21.5759C55.4722 22.1779 55.8562 23.0179 55.8562 23.9479V24.0039V24.0019V24.0559C55.8562 24.9859 55.4722 25.8259 54.8522 26.4259C54.2502 27.0459 53.4102 27.4299 52.4802 27.4299H52.4242H52.4262H52.0242L48.9422 45.1679C48.8117 45.9652 48.3941 46.6872 47.7682 47.1979L47.7622 47.2019C47.1822 47.6999 46.4222 48.0039 45.5922 48.0039H11.2582C10.4282 48.0039 9.66817 47.6999 9.08417 47.1979L9.08817 47.2019C8.46426 46.6951 8.04622 45.9785 7.91217 45.1859L7.91017 45.1659L4.82817 27.4279H4.37217C3.44217 27.4279 2.60217 27.0439 2.00217 26.4239C1.68407 26.1163 1.43121 25.7477 1.25871 25.3401C1.08621 24.9326 0.997604 24.4945 0.998172 24.0519V23.9439C0.998172 23.0139 1.38217 22.1739 2.00217 21.5739C2.60417 20.9539 3.44417 20.5699 4.37417 20.5699H4.43017H4.42817L52.4282 20.5719ZM13.9822 41.9999C14.2066 41.9846 14.4255 41.9235 14.6253 41.8203C14.8252 41.7171 15.0018 41.574 15.1442 41.3999L15.1462 41.3979C15.2981 41.2292 15.4135 41.0309 15.4851 40.8154C15.5567 40.5999 15.5829 40.372 15.5622 40.1459V40.1519L14.7042 29.0079C14.6889 28.7835 14.6277 28.5646 14.5245 28.3648C14.4213 28.1649 14.2783 27.9883 14.1042 27.8459L14.1022 27.8439C13.9335 27.692 13.7351 27.5766 13.5197 27.505C13.3042 27.4334 13.0763 27.4072 12.8502 27.4279H12.8562C12.6318 27.4432 12.4129 27.5044 12.213 27.6076C12.0132 27.7107 11.8366 27.8538 11.6942 28.0279L11.6922 28.0299C11.5402 28.1986 11.4248 28.3969 11.3532 28.6124C11.2817 28.8279 11.2554 29.0558 11.2762 29.2819V29.2759L12.1342 40.4199C12.1627 40.8518 12.3595 41.2554 12.6822 41.5439L12.6842 41.5459C12.9929 41.839 13.4025 42.0022 13.8282 42.0019H13.8502H13.8482L13.9822 41.9999ZM24.9922 40.2879V29.1279C24.9928 28.9057 24.9481 28.6858 24.8607 28.4815C24.7734 28.2772 24.6453 28.0929 24.4842 27.9399C24.3306 27.779 24.146 27.6509 23.9414 27.5636C23.7368 27.4763 23.5166 27.4315 23.2942 27.4319H23.2622C23.04 27.4313 22.82 27.476 22.6158 27.5633C22.4115 27.6507 22.2272 27.7788 22.0742 27.9399C21.9132 28.0934 21.7852 28.2781 21.6979 28.4827C21.6105 28.6873 21.5657 28.9075 21.5662 29.1299V40.3059C21.5662 40.7739 21.7602 41.1959 22.0742 41.4939C22.2277 41.6549 22.4124 41.7829 22.617 41.8702C22.8215 41.9576 23.0417 42.0024 23.2642 42.0019H23.2962C23.5183 42.0026 23.7383 41.9578 23.9426 41.8705C24.1469 41.7831 24.3312 41.655 24.4842 41.4939C24.6473 41.3404 24.7773 41.155 24.866 40.9493C24.9548 40.7436 25.0004 40.5219 25.0002 40.2979V40.2859L24.9922 40.2879ZM35.2782 40.2879V29.1279C35.2788 28.9057 35.2341 28.6858 35.1467 28.4815C35.0594 28.2772 34.9313 28.0929 34.7702 27.9399C34.6166 27.779 34.432 27.6509 34.2274 27.5636C34.0228 27.4763 33.8026 27.4315 33.5802 27.4319H33.5482C33.326 27.4313 33.106 27.476 32.9018 27.5633C32.6975 27.6507 32.5132 27.7788 32.3602 27.9399C32.1992 28.0934 32.0712 28.2781 31.9839 28.4827C31.8965 28.6873 31.8517 28.9075 31.8522 29.1299V40.3059C31.8522 40.7739 32.0462 41.1959 32.3602 41.4939C32.5137 41.6549 32.6984 41.7829 32.903 41.8702C33.1075 41.9576 33.3277 42.0024 33.5502 42.0019H33.5822C33.8043 42.0026 34.0243 41.9578 34.2286 41.8705C34.4329 41.7831 34.6172 41.655 34.7702 41.4939C34.9333 41.3404 35.0633 41.155 35.152 40.9493C35.2407 40.7436 35.2864 40.5219 35.2862 40.2979V40.2859L35.2782 40.2879ZM44.7062 40.4199L45.5642 29.2759C45.5835 29.0505 45.5566 28.8236 45.4851 28.6089C45.4135 28.3943 45.2989 28.1966 45.1482 28.0279L45.1502 28.0299C45.0081 27.8556 44.832 27.7121 44.6325 27.6082C44.433 27.5044 44.2145 27.4423 43.9902 27.4259H43.9842C43.7588 27.4066 43.5318 27.4335 43.3172 27.505C43.1026 27.5765 42.9049 27.6912 42.7362 27.8419L42.7382 27.8399C42.5638 27.982 42.4204 28.1581 42.3165 28.3576C42.2126 28.5571 42.1506 28.7756 42.1342 28.9999V29.0059L41.2762 40.1499C41.2568 40.3753 41.2837 40.6023 41.3553 40.8169C41.4268 41.0315 41.5415 41.2292 41.6922 41.3979L41.6902 41.3959C41.8322 41.5702 42.0084 41.7137 42.2079 41.8176C42.4073 41.9214 42.6259 41.9835 42.8502 41.9999H43.0102C43.4364 41.9999 43.8465 41.8367 44.1562 41.5439C44.483 41.2557 44.6834 40.8506 44.7142 40.4159V40.4099L44.7062 40.4199ZM13.7502 7.81991L11.2602 18.8559H7.72417L10.4282 7.04391C10.7542 5.47391 11.6082 4.14391 12.7922 3.21391L12.8062 3.20391C13.9977 2.23766 15.4861 1.71209 17.0202 1.71591H17.0962H17.0922H21.5642V1.69991C21.5642 1.23191 21.7582 0.809909 22.0722 0.511909C22.2258 0.350445 22.4108 0.221959 22.6157 0.134278C22.8206 0.0465983 23.0413 0.00156053 23.2642 0.00190936H33.5882C34.0562 0.00190936 34.4782 0.195909 34.7762 0.509909C34.9371 0.663445 35.0652 0.848117 35.1525 1.05269C35.2398 1.25727 35.2846 1.47747 35.2842 1.69991V1.71591H39.8302C41.4322 1.71591 42.9022 2.27591 44.0542 3.21191L44.0422 3.20191C45.2554 4.14875 46.0949 5.494 46.4122 6.99991L46.4202 7.04191L49.1242 18.8539H45.5882L43.0982 7.81791C42.9172 7.06056 42.4911 6.3842 41.8862 5.89391L41.8802 5.88791C41.2915 5.40179 40.5516 5.13652 39.7882 5.13791H35.2782V5.15391C35.2788 5.37608 35.2341 5.59604 35.1467 5.80032C35.0594 6.0046 34.9313 6.18889 34.7702 6.34191C34.6166 6.50286 34.432 6.6309 34.2274 6.71823C34.0228 6.80556 33.8026 6.85036 33.5802 6.84991H23.2642C23.042 6.85056 22.822 6.80583 22.6178 6.71848C22.4135 6.63113 22.2292 6.50299 22.0762 6.34191C21.9152 6.18837 21.7872 6.0037 21.6999 5.79913C21.6125 5.59455 21.5677 5.37435 21.5682 5.15191V5.13591H17.0582C16.2929 5.13505 15.5515 5.40177 14.9622 5.88991L14.9682 5.88591C14.3676 6.37228 13.9438 7.04277 13.7622 7.79391L13.7582 7.81791L13.7502 7.81991Z" fill="#413125"/>
</svg>
